<svg width="24" height="24" viewBox="0 0 24 24" fill="none" xmlns="http://www.w3.org/2000/svg">
<path d="M2 9V7C2 4 4 2 7 2H17C20 2 22 4 22 7V9" stroke="#737E8D" stroke-width="1.5" stroke-miterlimit="10" stroke-linecap="round" stroke-linejoin="round"/>
<path d="M2 15V17C2 20 4 22 7 22H17C20 22 22 20 22 17V15" stroke="#737E8D" stroke-width="1.5" stroke-miterlimit="10" stroke-linecap="round" stroke-linejoin="round"/>
<path d="M6.69995 9.25977L12 12.3298L17.2599 9.27979" stroke="#737E8D" stroke-width="1.5" stroke-linecap="round" stroke-linejoin="round"/>
<path d="M12 17.7693V12.3193" stroke="#737E8D" stroke-width="1.5" stroke-linecap="round" stroke-linejoin="round"/>
<path d="M10.76 6.28957L7.55998 8.0696C6.83998 8.4696 6.23999 9.47959 6.23999 10.3096V13.6996C6.23999 14.5296 6.82998 15.5396 7.55998 15.9396L10.76 17.7196C11.44 18.0996 12.56 18.0996 13.25 17.7196L16.45 15.9396C17.17 15.5396 17.77 14.5296 17.77 13.6996V10.3096C17.77 9.47959 17.18 8.4696 16.45 8.0696L13.25 6.28957C12.56 5.89957 11.44 5.89957 10.76 6.28957Z" stroke="#737E8D" stroke-width="1.5" stroke-linecap="round" stroke-linejoin="round"/>
</svg>
