<svg width="22" height="22" viewBox="0 0 22 22" fill="none" xmlns="http://www.w3.org/2000/svg">
<path d="M14.97 8C14.97 11.87 11.84 15 7.97 15C7.65 15 7.34 14.98 7.04 14.93C3.61 14.48 0.970001 11.55 0.970001 8C0.970001 4.13 4.1 1 7.97 1C11.52 1 14.45 3.64 14.9 7.07C14.95 7.37 14.97 7.68 14.97 8Z" stroke="#737E8D" stroke-width="1.5" stroke-linecap="round" stroke-linejoin="round"/>
<path d="M20.97 14.0003C20.97 17.8703 17.84 21.0003 13.97 21.0003C10.42 21.0003 7.49001 18.3603 7.04001 14.9303C7.34001 14.9803 7.65001 15.0003 7.97001 15.0003C11.84 15.0003 14.97 11.8703 14.97 8.00031C14.97 7.68031 14.95 7.37031 14.9 7.07031C18.33 7.52031 20.97 10.4503 20.97 14.0003Z" stroke="#737E8D" stroke-width="1.5" stroke-linecap="round" stroke-linejoin="round"/>
<path d="M13.12 13.1201L14.43 14.4101" stroke="#737E8D" stroke-width="1.5" stroke-linecap="round" stroke-linejoin="round"/>
<path d="M15.97 11L14.97 10" stroke="#737E8D" stroke-width="1.5" stroke-linecap="round" stroke-linejoin="round"/>
<path d="M10.97 16L9.97 15" stroke="#737E8D" stroke-width="1.5" stroke-linecap="round" stroke-linejoin="round"/>
</svg>
