<svg width="24" height="24" viewBox="0 0 24 24" fill="none" xmlns="http://www.w3.org/2000/svg">
<path d="M21.81 3.93988C20.27 7.77988 16.41 12.9999 13.18 15.5899L11.21 17.1699C10.96 17.3499 10.71 17.5099 10.43 17.6199C10.43 17.4399 10.42 17.2399 10.39 17.0499C10.28 16.2099 9.89999 15.4299 9.22999 14.7599C8.54999 14.0799 7.71999 13.6799 6.86999 13.5699C6.66999 13.5599 6.46999 13.5399 6.26999 13.5599C6.37999 13.2499 6.54999 12.9599 6.75999 12.7199L8.31999 10.7499C10.9 7.51988 16.14 3.63988 19.97 2.10988C20.56 1.88988 21.13 2.04988 21.49 2.41988C21.87 2.78988 22.05 3.35988 21.81 3.93988Z" stroke="#737E8D" stroke-width="1.5" stroke-linecap="round" stroke-linejoin="round"/>
<path d="M10.43 17.6198C10.43 18.7198 10.01 19.7698 9.22 20.5698C8.61 21.1798 7.78 21.5998 6.79 21.7298L4.33 21.9998C2.99 22.1498 1.84 21.0098 2 19.6498L2.27 17.1898C2.51 14.9998 4.34 13.5998 6.28 13.5598C6.48 13.5498 6.69 13.5598 6.88 13.5698C7.73 13.6798 8.56 14.0698 9.24 14.7598C9.91 15.4298 10.29 16.2098 10.4 17.0498C10.41 17.2398 10.43 17.4298 10.43 17.6198Z" stroke="#737E8D" stroke-width="1.5" stroke-linecap="round" stroke-linejoin="round"/>
<path d="M14.24 14.4702C14.24 11.8602 12.12 9.74023 9.51001 9.74023" stroke="#737E8D" stroke-width="1.5" stroke-linecap="round" stroke-linejoin="round"/>
</svg>
