<svg width="24" height="24" viewBox="0 0 24 24" fill="none" xmlns="http://www.w3.org/2000/svg">
<path d="M12.97 17.61L10.86 15.5" stroke="#737E8D" stroke-width="1.5" stroke-miterlimit="10" stroke-linecap="round" stroke-linejoin="round"/>
<path d="M12.95 15.5195L10.83 17.6395" stroke="#737E8D" stroke-width="1.5" stroke-miterlimit="10" stroke-linecap="round" stroke-linejoin="round"/>
<path d="M5.54003 11.1201C0.860029 11.4501 0.860029 18.2601 5.54003 18.5901H7.46003" stroke="#737E8D" stroke-width="1.5" stroke-miterlimit="10" stroke-linecap="round" stroke-linejoin="round"/>
<path d="M5.59003 11.1197C2.38003 2.18965 15.92 -1.38034 17.47 7.99966C21.8 8.54966 23.55 14.3197 20.27 17.1897C19.27 18.0997 17.98 18.5997 16.63 18.5897H16.54" stroke="#737E8D" stroke-width="1.5" stroke-miterlimit="10" stroke-linecap="round" stroke-linejoin="round"/>
<path d="M17 16.5303C17 17.2703 16.84 17.9703 16.54 18.5903C16.46 18.7703 16.37 18.9403 16.27 19.1003C15.41 20.5503 13.82 21.5303 12 21.5303C10.18 21.5303 8.59 20.5503 7.73 19.1003C7.63 18.9403 7.54 18.7703 7.46 18.5903C7.16 17.9703 7 17.2703 7 16.5303C7 13.7703 9.24 11.5303 12 11.5303C14.76 11.5303 17 13.7703 17 16.5303Z" stroke="#737E8D" stroke-width="1.5" stroke-miterlimit="10" stroke-linecap="round" stroke-linejoin="round"/>
</svg>
