<svg width="24" height="24" viewBox="0 0 24 24" fill="none" xmlns="http://www.w3.org/2000/svg">
<path d="M17.5399 8.30965C18.8986 8.30965 20 7.20827 20 5.84965C20 4.49103 18.8986 3.38965 17.5399 3.38965C16.1813 3.38965 15.08 4.49103 15.08 5.84965C15.08 7.20827 16.1813 8.30965 17.5399 8.30965Z" stroke="#737E8D" stroke-width="1.5" stroke-miterlimit="10" stroke-linecap="round" stroke-linejoin="round"/>
<path d="M6.46001 8.30965C7.81863 8.30965 8.92 7.20827 8.92 5.84965C8.92 4.49103 7.81863 3.38965 6.46001 3.38965C5.10139 3.38965 4 4.49103 4 5.84965C4 7.20827 5.10139 8.30965 6.46001 8.30965Z" stroke="#737E8D" stroke-width="1.5" stroke-miterlimit="10" stroke-linecap="round" stroke-linejoin="round"/>
<path d="M17.5399 20.6095C18.8986 20.6095 20 19.5081 20 18.1495C20 16.7908 18.8986 15.6895 17.5399 15.6895C16.1813 15.6895 15.08 16.7908 15.08 18.1495C15.08 19.5081 16.1813 20.6095 17.5399 20.6095Z" stroke="#737E8D" stroke-width="1.5" stroke-miterlimit="10" stroke-linecap="round" stroke-linejoin="round"/>
<path d="M6.46001 20.6095C7.81863 20.6095 8.92 19.5081 8.92 18.1495C8.92 16.7908 7.81863 15.6895 6.46001 15.6895C5.10139 15.6895 4 16.7908 4 18.1495C4 19.5081 5.10139 20.6095 6.46001 20.6095Z" stroke="#737E8D" stroke-width="1.5" stroke-miterlimit="10" stroke-linecap="round" stroke-linejoin="round"/>
</svg>
