<svg width="24" height="24" viewBox="0 0 24 24" fill="none" xmlns="http://www.w3.org/2000/svg">
<path d="M16 6.3V6C16 3.79 14.21 2 12 2C9.79 2 8 3.79 8 6V11" stroke="#737E8D" stroke-width="1.5" stroke-linecap="round" stroke-linejoin="round"/>
<path d="M9.04004 14.19C9.77004 15 10.83 15.5 12 15.5C14.21 15.5 16 13.71 16 11.5V11" stroke="#737E8D" stroke-width="1.5" stroke-linecap="round" stroke-linejoin="round"/>
<path d="M6.78003 16.9504C8.15003 18.2204 9.98003 19.0004 12 19.0004C16.22 19.0004 19.65 15.5704 19.65 11.3504V9.65039" stroke="#737E8D" stroke-width="1.5" stroke-linecap="round" stroke-linejoin="round"/>
<path d="M4.3501 9.65039V11.3504C4.3501 12.4104 4.5601 13.4104 4.9501 14.3304" stroke="#737E8D" stroke-width="1.5" stroke-linecap="round" stroke-linejoin="round"/>
<path d="M20.0699 2.83984L3.92993 18.9898" stroke="#737E8D" stroke-width="1.5" stroke-linecap="round" stroke-linejoin="round"/>
<path d="M11 3V6" stroke="#737E8D" stroke-width="1.5" stroke-linecap="round" stroke-linejoin="round"/>
<path d="M12 19V22" stroke="#737E8D" stroke-width="1.5" stroke-linecap="round" stroke-linejoin="round"/>
</svg>
