<svg width="24" height="24" viewBox="0 0 24 24" fill="none" xmlns="http://www.w3.org/2000/svg">
<path d="M10 16.9503H6.21C2.84 16.9503 2 16.1103 2 12.7403V6.74027C2 3.37027 2.84 2.53027 6.21 2.53027H16.74C20.11 2.53027 20.95 3.37027 20.95 6.74027" stroke="#737E8D" stroke-width="1.5" stroke-linecap="round" stroke-linejoin="round"/>
<path d="M10 21.4702V16.9502" stroke="#737E8D" stroke-width="1.5" stroke-linecap="round" stroke-linejoin="round"/>
<path d="M2 12.9502H10" stroke="#737E8D" stroke-width="1.5" stroke-linecap="round" stroke-linejoin="round"/>
<path d="M6.73999 21.4697H9.99999" stroke="#737E8D" stroke-width="1.5" stroke-linecap="round" stroke-linejoin="round"/>
<path d="M22 12.7998V18.5098C22 20.8798 21.41 21.4698 19.04 21.4698H15.49C13.12 21.4698 12.53 20.8798 12.53 18.5098V12.7998C12.53 10.4298 13.12 9.83984 15.49 9.83984H19.04C21.41 9.83984 22 10.4298 22 12.7998Z" stroke="#737E8D" stroke-width="1.5" stroke-linecap="round" stroke-linejoin="round"/>
<path d="M17.2445 18.25H17.2535" stroke="#737E8D" stroke-width="2" stroke-linecap="round" stroke-linejoin="round"/>
</svg>
