<svg width="24" height="24" viewBox="0 0 24 24" fill="none" xmlns="http://www.w3.org/2000/svg">
<path d="M21.19 8.04039L18.01 4.8604C16.81 3.6604 15.16 3.72042 14.35 5.01042L12.58 7.81041L18.25 13.4804L21.05 11.7104C22.26 10.9404 22.33 9.17039 21.19 8.04039Z" stroke="#737E8D" stroke-width="1.5" stroke-linecap="round" stroke-linejoin="round"/>
<path d="M18.25 13.4707L18.49 17.5907C18.72 19.8907 17.92 20.6907 15.74 20.9507L7.01999 21.9807C5.17999 22.1907 3.85999 20.8708 4.07999 19.0408L5.05998 10.7607" stroke="#737E8D" stroke-width="1.5" stroke-linecap="round" stroke-linejoin="round"/>
<path d="M12.58 7.81018L10.83 7.7002" stroke="#737E8D" stroke-width="1.5" stroke-linecap="round" stroke-linejoin="round"/>
<path d="M5.27997 20.7809L8.45998 17.5908" stroke="#737E8D" stroke-width="1.5" stroke-linecap="round" stroke-linejoin="round"/>
<path d="M11 6.5C11 6.91 10.94 7.32001 10.83 7.70001C10.72 8.10001 10.56 8.47001 10.35 8.82001C10.11 9.22001 9.81001 9.58 9.46001 9.88C8.67001 10.58 7.64 11 6.5 11C5.99 11 5.51 10.92 5.06 10.76C4.04 10.42 3.18999 9.72001 2.64999 8.82001C2.23999 8.14001 2 7.34 2 6.5C2 5.08 2.65 3.80999 3.69 2.98999C4.46 2.36999 5.44 2 6.5 2C8.99 2 11 4.01 11 6.5Z" stroke="#737E8D" stroke-width="1.5" stroke-miterlimit="10" stroke-linecap="round" stroke-linejoin="round"/>
<path d="M7.7 7.67981L5.32001 5.2998" stroke="#737E8D" stroke-width="1.5" stroke-miterlimit="10" stroke-linecap="round" stroke-linejoin="round"/>
<path d="M7.67998 5.32031L5.29999 7.70032" stroke="#737E8D" stroke-width="1.5" stroke-miterlimit="10" stroke-linecap="round" stroke-linejoin="round"/>
</svg>
