<svg width="24" height="24" viewBox="0 0 24 24" fill="none" xmlns="http://www.w3.org/2000/svg">
<path d="M10.75 22.4996H13.27C14.23 22.4996 14.85 21.8196 14.67 20.9896L14.26 19.1797H9.75999L9.34999 20.9896C9.16999 21.7696 9.84999 22.4996 10.75 22.4996Z" stroke="#737E8D" stroke-width="1.5" stroke-linecap="round" stroke-linejoin="round"/>
<path d="M14.26 19.1702L15.99 17.6301C16.96 16.7701 17 16.1701 16.23 15.2001L13.18 11.3302C12.54 10.5202 11.49 10.5202 10.85 11.3302L7.79999 15.2001C7.02999 16.1701 7.02999 16.8001 8.03999 17.6301L9.76999 19.1702" stroke="#737E8D" stroke-width="1.5" stroke-linecap="round" stroke-linejoin="round"/>
<path d="M12.01 11.1201V13.6501" stroke="#737E8D" stroke-width="1.5" stroke-linecap="round" stroke-linejoin="round"/>
<path d="M11.15 5.18966L10.37 4.40963C9.90002 3.93963 9.90002 3.17968 10.37 2.70968L11.15 1.92965C11.62 1.45965 12.38 1.45965 12.85 1.92965L13.63 2.70968C14.1 3.17968 14.1 3.93963 13.63 4.40963L12.85 5.18966C12.38 5.65966 11.62 5.65966 11.15 5.18966Z" stroke="#737E8D" stroke-width="1.5" stroke-linecap="round" stroke-linejoin="round"/>
<path d="M19.45 9.80957H20.55C21.21 9.80957 21.75 10.3496 21.75 11.0096V12.1096C21.75 12.7696 21.21 13.3096 20.55 13.3096H19.45C18.79 13.3096 18.25 12.7696 18.25 12.1096V11.0096C18.25 10.3496 18.79 9.80957 19.45 9.80957Z" stroke="#737E8D" stroke-width="1.5" stroke-linecap="round" stroke-linejoin="round"/>
<path d="M4.55 9.80957H3.45C2.79 9.80957 2.25 10.3496 2.25 11.0096V12.1096C2.25 12.7696 2.79 13.3096 3.45 13.3096H4.55C5.21 13.3096 5.75 12.7696 5.75 12.1096V11.0096C5.75 10.3496 5.21 9.80957 4.55 9.80957Z" stroke="#737E8D" stroke-width="1.5" stroke-linecap="round" stroke-linejoin="round"/>
<path d="M18.54 10.0998L13.24 4.7998" stroke="#737E8D" stroke-width="1.5" stroke-linecap="round" stroke-linejoin="round"/>
<path d="M5.45999 10.0998L10.76 4.7998" stroke="#737E8D" stroke-width="1.5" stroke-linecap="round" stroke-linejoin="round"/>
</svg>
