<svg width="24" height="24" viewBox="0 0 24 24" fill="none" xmlns="http://www.w3.org/2000/svg">
<path d="M16.9999 11.8398H14.3199C13.6099 11.8398 13.1299 11.2998 13.1299 10.6498V9.15973C13.1299 8.50973 13.6099 7.96973 14.3199 7.96973H15.8099C16.4599 7.96973 16.9999 8.50973 16.9999 9.15973V11.8398Z" stroke="#737E8D" stroke-width="1.5" stroke-linecap="round" stroke-linejoin="round"/>
<path d="M16.9999 11.8398C16.9999 14.6298 16.4799 15.0998 14.9099 16.0298" stroke="#737E8D" stroke-width="1.5" stroke-linecap="round" stroke-linejoin="round"/>
<path d="M10.86 11.8398H8.17998C7.46998 11.8398 6.98999 11.2998 6.98999 10.6498V9.15973C6.98999 8.50973 7.46998 7.96973 8.17998 7.96973H9.66998C10.32 7.96973 10.86 8.50973 10.86 9.15973V11.8398Z" stroke="#737E8D" stroke-width="1.5" stroke-linecap="round" stroke-linejoin="round"/>
<path d="M10.86 11.8398C10.86 14.6298 10.34 15.0998 8.77002 16.0298" stroke="#737E8D" stroke-width="1.5" stroke-linecap="round" stroke-linejoin="round"/>
<path d="M12 22C17.5228 22 22 17.5228 22 12C22 6.47715 17.5228 2 12 2C6.47715 2 2 6.47715 2 12C2 17.5228 6.47715 22 12 22Z" stroke="#737E8D" stroke-width="1.5" stroke-linecap="round" stroke-linejoin="round"/>
</svg>
