<svg width="24" height="24" viewBox="0 0 24 24" fill="none" xmlns="http://www.w3.org/2000/svg">
<path d="M21.9999 11.6495H16.1999C14.6699 11.6495 13.6199 10.4895 13.6199 9.06952V5.84949C13.6199 4.42949 14.6699 3.26953 16.1999 3.26953H19.4199C20.8399 3.26953 21.9999 4.42949 21.9999 5.84949V11.6495Z" stroke="#737E8D" stroke-width="1.5" stroke-linecap="round" stroke-linejoin="round"/>
<path d="M22 11.6494C22 17.6994 20.87 18.6994 17.47 20.7194" stroke="#737E8D" stroke-width="1.5" stroke-linecap="round" stroke-linejoin="round"/>
<path d="M10.37 11.6495H4.56999C3.03999 11.6495 1.98999 10.4895 1.98999 9.06952V5.84949C1.98999 4.42949 3.03999 3.26953 4.56999 3.26953H7.79999C9.21999 3.26953 10.38 4.42949 10.38 5.84949V11.6495" stroke="#737E8D" stroke-width="1.5" stroke-linecap="round" stroke-linejoin="round"/>
<path d="M10.3701 11.6494C10.3701 17.6994 9.24009 18.6994 5.84009 20.7194" stroke="#737E8D" stroke-width="1.5" stroke-linecap="round" stroke-linejoin="round"/>
</svg>
