<svg width="24" height="24" viewBox="0 0 24 24" fill="none" xmlns="http://www.w3.org/2000/svg">
<path d="M16.96 6.16992C18.96 7.55992 20.34 9.76992 20.62 12.3199" stroke="#737E8D" stroke-width="1.5" stroke-linecap="round" stroke-linejoin="round"/>
<path d="M3.48999 12.3697C3.74999 9.82973 5.10999 7.61973 7.08999 6.21973" stroke="#737E8D" stroke-width="1.5" stroke-linecap="round" stroke-linejoin="round"/>
<path d="M8.19 20.9404C9.35 21.5304 10.67 21.8604 12.06 21.8604C13.4 21.8604 14.66 21.5604 15.79 21.0104" stroke="#737E8D" stroke-width="1.5" stroke-linecap="round" stroke-linejoin="round"/>
<path d="M12.06 7.69965C13.5954 7.69965 14.84 6.455 14.84 4.91965C14.84 3.3843 13.5954 2.13965 12.06 2.13965C10.5247 2.13965 9.28003 3.3843 9.28003 4.91965C9.28003 6.455 10.5247 7.69965 12.06 7.69965Z" stroke="#737E8D" stroke-width="1.5" stroke-linecap="round" stroke-linejoin="round"/>
<path d="M4.82999 19.9204C6.36534 19.9204 7.60999 18.6757 7.60999 17.1404C7.60999 15.605 6.36534 14.3604 4.82999 14.3604C3.29464 14.3604 2.04999 15.605 2.04999 17.1404C2.04999 18.6757 3.29464 19.9204 4.82999 19.9204Z" stroke="#737E8D" stroke-width="1.5" stroke-linecap="round" stroke-linejoin="round"/>
<path d="M19.17 19.9204C20.7054 19.9204 21.95 18.6757 21.95 17.1404C21.95 15.605 20.7054 14.3604 19.17 14.3604C17.6347 14.3604 16.39 15.605 16.39 17.1404C16.39 18.6757 17.6347 19.9204 19.17 19.9204Z" stroke="#737E8D" stroke-width="1.5" stroke-linecap="round" stroke-linejoin="round"/>
</svg>
