<svg width="24" height="24" viewBox="0 0 24 24" fill="none" xmlns="http://www.w3.org/2000/svg">
<path d="M7 6H17C17.62 6 18.17 6.02 18.66 6.09C21.29 6.38 22 7.62 22 11V13C22 16.38 21.29 17.62 18.66 17.91C18.17 17.98 17.62 18 17 18H7C6.38 18 5.83 17.98 5.34 17.91C2.71 17.62 2 16.38 2 13V11C2 7.62 2.71 6.38 5.34 6.09C5.83 6.02 6.38 6 7 6Z" stroke="#737E8D" stroke-width="1.5" stroke-linecap="round" stroke-linejoin="round"/>
<path d="M17 18.0002C17.62 18.0002 18.17 17.9802 18.66 17.9102C18.67 18.0502 18.67 18.1802 18.67 18.3302V18.6702C18.67 21.3302 18 22.0002 15.33 22.0002H8.67C6 22.0002 5.33 21.3302 5.33 18.6702V18.3302C5.33 18.1802 5.33 18.0502 5.34 17.9102C5.83 17.9802 6.38 18.0002 7 18.0002H17Z" stroke="#737E8D" stroke-width="1.5" stroke-linecap="round" stroke-linejoin="round"/>
<path d="M8.67 2H15.33C18 2 18.67 2.67 18.67 5.33V5.67C18.67 5.82 18.67 5.95 18.66 6.09C18.17 6.02 17.62 6 17 6H7C6.38 6 5.83 6.02 5.34 6.09C5.33 5.95 5.33 5.82 5.33 5.67V5.33C5.33 2.67 6 2 8.67 2Z" stroke="#737E8D" stroke-width="1.5" stroke-linecap="round" stroke-linejoin="round"/>
</svg>
