<svg width="24" height="24" viewBox="0 0 24 24" fill="none" xmlns="http://www.w3.org/2000/svg">
<path d="M5.28 18.6496L5.85 16.1796C5.98 15.5996 5.75 14.7896 5.33 14.3696L2.85 11.8896C1.39 10.4296 1.86 8.94965 3.9 8.60965L7.09 8.07965C7.62 7.98965 8.26 7.51965 8.5 7.02965L10.26 3.50965C11.21 1.59965 12.77 1.59965 13.73 3.50965L15.49 7.02965C15.6 7.25965 15.81 7.47965 16.04 7.66965" stroke="#737E8D" stroke-width="1.5" stroke-linecap="round" stroke-linejoin="round"/>
<path d="M20.1 8.61035C22.14 8.95035 22.62 10.4304 21.15 11.8904L18.67 14.3704C18.25 14.7904 18.02 15.6004 18.15 16.1804L18.86 19.2504C19.42 21.6804 18.13 22.6204 15.98 21.3504L12.99 19.5804C12.45 19.2604 11.56 19.2604 11.01 19.5804L8.01999 21.3504" stroke="#737E8D" stroke-width="1.5" stroke-linecap="round" stroke-linejoin="round"/>
<path d="M22 2L2 22" stroke="#737E8D" stroke-width="1.5" stroke-linecap="round" stroke-linejoin="round"/>
</svg>
