<svg width="24" height="24" viewBox="0 0 24 24" fill="none" xmlns="http://www.w3.org/2000/svg">
<path d="M16.61 19.9999C17.95 20.0099 19.24 19.5099 20.23 18.6099C23.5 15.7499 21.75 10.0099 17.44 9.46995C15.9 0.129949 2.42998 3.66995 5.61998 12.5599" stroke="#737E8D" stroke-width="1.5" stroke-miterlimit="10" stroke-linecap="round" stroke-linejoin="round"/>
<path d="M7.28011 12.9698C6.75011 12.6998 6.16011 12.5598 5.57011 12.5698C0.910109 12.8998 0.920108 19.6798 5.57011 20.0098" stroke="#737E8D" stroke-width="1.5" stroke-miterlimit="10" stroke-linecap="round" stroke-linejoin="round"/>
<path d="M15.8201 9.89047C16.3401 9.63047 16.9001 9.49047 17.4801 9.48047" stroke="#737E8D" stroke-width="1.5" stroke-miterlimit="10" stroke-linecap="round" stroke-linejoin="round"/>
<path d="M9.23008 19.1603H10.2301V21.4903C10.2301 21.8303 10.6601 22.0003 10.8801 21.7403L13.3301 18.9503C13.6301 18.6103 13.5001 18.3303 13.0501 18.3303H12.0501V16.0003C12.0501 15.6603 11.6201 15.4903 11.4001 15.7503L8.95008 18.5403C8.65008 18.8803 8.78008 19.1603 9.23008 19.1603Z" stroke="#737E8D" stroke-width="1.5" stroke-miterlimit="10" stroke-linecap="round" stroke-linejoin="round"/>
</svg>
