<svg width="24" height="24" viewBox="0 0 24 24" fill="none" xmlns="http://www.w3.org/2000/svg">
<path d="M21.81 3.93988C20.27 7.77988 16.41 12.9999 13.18 15.5899L11.21 17.1699C10.96 17.3499 10.71 17.5099 10.43 17.6199C10.43 17.4399 10.42 17.2399 10.39 17.0499C10.28 16.2099 9.9 15.4299 9.23 14.7599C8.55 14.0799 7.72 13.6799 6.87 13.5699C6.67 13.5599 6.47 13.5399 6.27 13.5599C6.38 13.2499 6.55 12.9599 6.76 12.7199L8.32 10.7499C10.9 7.51988 16.14 3.63988 19.97 2.10988C20.56 1.88988 21.13 2.04988 21.49 2.41988C21.87 2.78988 22.05 3.35988 21.81 3.93988Z" stroke="#737E8D" stroke-width="1.5" stroke-linecap="round" stroke-linejoin="round"/>
<path d="M10.43 17.6198C10.43 18.7198 10.01 19.7698 9.22 20.5698C8.61 21.1798 7.78 21.5998 6.79 21.7298L4.33 21.9998C2.99 22.1498 1.84 21.0098 2 19.6498L2.27 17.1898C2.51 14.9998 4.34 13.5998 6.28 13.5598C6.48 13.5498 6.69 13.5598 6.88 13.5698C7.73 13.6798 8.56 14.0698 9.24 14.7598C9.91 15.4298 10.29 16.2098 10.4 17.0498C10.41 17.2398 10.43 17.4298 10.43 17.6198Z" stroke="#737E8D" stroke-width="1.5" stroke-linecap="round" stroke-linejoin="round"/>
<path d="M14.24 14.4702C14.24 11.8602 12.12 9.74023 9.51 9.74023" stroke="#737E8D" stroke-width="1.5" stroke-linecap="round" stroke-linejoin="round"/>
<path d="M20.12 12.7305L20.86 13.4605C22.35 14.9505 22.35 16.4205 20.86 17.9105L17.9 20.8705C16.43 22.3405 14.94 22.3405 13.47 20.8705" stroke="#737E8D" stroke-width="1.5" stroke-linecap="round"/>
<path d="M3.11 10.5096C1.64 9.01957 1.64 7.54957 3.11 6.05957L6.07 3.09957C7.54 1.62957 9.03 1.62957 10.5 3.09957L11.24 3.83957" stroke="#737E8D" stroke-width="1.5" stroke-linecap="round"/>
<path d="M11.25 3.84961L7.55 7.54961" stroke="#737E8D" stroke-width="1.5" stroke-linecap="round"/>
<path d="M20.12 12.7305L17.16 15.6805" stroke="#737E8D" stroke-width="1.5" stroke-linecap="round"/>
</svg>
