<svg width="24" height="24" viewBox="0 0 24 24" fill="none" xmlns="http://www.w3.org/2000/svg">
<path d="M22 10V15C22 20 20 22 15 22H9C4 22 2 20 2 15V9C2 4 4 2 9 2H14" stroke="#737E8D" stroke-width="1.5" stroke-linecap="round" stroke-linejoin="round"/>
<path d="M22 10H18C15 10 14 9 14 6V2L22 10Z" stroke="#737E8D" stroke-width="1.5" stroke-linecap="round" stroke-linejoin="round"/>
<path d="M6.62003 15.7303C6.29003 14.7003 6.68003 13.4303 7.75003 13.0803C8.32003 12.9003 9.02003 13.0503 9.41003 13.6003C9.78003 13.0303 10.51 12.9003 11.07 13.0803C12.15 13.4303 12.53 14.7003 12.21 15.7303C11.7 17.3603 9.91003 18.2103 9.41003 18.2103C8.92003 18.2003 7.15003 17.3703 6.62003 15.7303Z" stroke="#737E8D" stroke-width="1.5" stroke-linecap="round" stroke-linejoin="round"/>
</svg>
