<svg width="24" height="24" viewBox="0 0 24 24" fill="none" xmlns="http://www.w3.org/2000/svg">
<path d="M9 10C10.1046 10 11 9.10457 11 8C11 6.89543 10.1046 6 9 6C7.89543 6 7 6.89543 7 8C7 9.10457 7.89543 10 9 10Z" stroke="#737E8D" stroke-width="1.5" stroke-linecap="round" stroke-linejoin="round"/>
<path d="M12 2H9C4 2 2 4 2 9V15C2 20 4 22 9 22H15C20 22 22 20 22 15V11" stroke="#737E8D" stroke-width="1.5" stroke-linecap="round" stroke-linejoin="round"/>
<path d="M16.1199 5.11039C15.7899 4.07039 16.1799 2.78039 17.2599 2.43039C17.8299 2.25039 18.5399 2.40039 18.9399 2.95039C19.3199 2.38039 20.0499 2.24039 20.6199 2.43039C21.7099 2.78039 22.0999 4.07039 21.7699 5.11039C21.2499 6.75039 19.4499 7.61039 18.9499 7.61039C18.4399 7.61039 16.6499 6.77039 16.1199 5.11039Z" stroke="#737E8D" stroke-width="1.5" stroke-linecap="round" stroke-linejoin="round"/>
<path d="M2.66992 18.9496L7.59992 15.6396C8.38992 15.1096 9.52992 15.1696 10.2399 15.7796L10.5699 16.0696C11.3499 16.7396 12.6099 16.7396 13.3899 16.0696L17.5499 12.4996C18.3299 11.8296 19.5899 11.8296 20.3699 12.4996L21.9999 13.8996" stroke="#737E8D" stroke-width="1.5" stroke-linecap="round" stroke-linejoin="round"/>
</svg>
