<svg width="24" height="24" viewBox="0 0 24 24" fill="none" xmlns="http://www.w3.org/2000/svg">
<path d="M9 22H15C20 22 22 20 22 15V9C22 4 20 2 15 2H9C4 2 2 4 2 9V15C2 20 4 22 9 22Z" stroke="#737E8D" stroke-width="1.5" stroke-linecap="round" stroke-linejoin="round"/>
<path d="M16.28 13.6096C15.15 14.7396 13.53 15.0896 12.1 14.6396L9.51001 17.2196C9.33001 17.4096 8.96001 17.5296 8.69001 17.4896L7.49001 17.3296C7.09001 17.2796 6.73001 16.8996 6.67001 16.5096L6.51001 15.3096C6.47001 15.0496 6.60001 14.6796 6.78001 14.4896L9.36001 11.9096C8.92001 10.4796 9.26001 8.85965 10.39 7.72965C12.01 6.10965 14.65 6.10965 16.28 7.72965C17.9 9.33965 17.9 11.9796 16.28 13.6096Z" stroke="#737E8D" stroke-width="1.5" stroke-miterlimit="10" stroke-linecap="round" stroke-linejoin="round"/>
<path d="M10.45 16.2799L9.59998 15.4199" stroke="#737E8D" stroke-width="1.5" stroke-miterlimit="10" stroke-linecap="round" stroke-linejoin="round"/>
<path d="M13.3945 10.7002H13.4035" stroke="#737E8D" stroke-width="2" stroke-linecap="round" stroke-linejoin="round"/>
</svg>
