<svg width="24" height="24" viewBox="0 0 24 24" fill="none" xmlns="http://www.w3.org/2000/svg">
<path d="M21.97 12.0003C21.97 14.9403 20.69 17.6003 18.65 19.4103C16.89 21.0103 14.56 21.9703 12 21.9703C6.5 21.9703 2.03 17.5003 2.03 12.0003C2.03 6.50027 6.5 2.03027 12 2.03027C14.56 2.03027 16.89 2.99027 18.65 4.59027C20.69 6.40027 21.97 9.06027 21.97 12.0003Z" stroke="#737E8D" stroke-width="1.5" stroke-linecap="round" stroke-linejoin="round"/>
<path d="M11.97 16.3902C11.95 18.0402 10.72 18.4402 9.57 17.9802C7.2 17.0302 5.53 14.7102 5.53 12.0002C5.53 9.29024 7.2 6.97024 9.57 6.01024C10.72 5.55024 11.95 5.96024 11.97 7.60024V16.3902Z" stroke="#737E8D" stroke-width="1.5" stroke-linecap="round" stroke-linejoin="round"/>
</svg>
