<svg width="24" height="24" viewBox="0 0 24 24" fill="none" xmlns="http://www.w3.org/2000/svg">
<path d="M2 3H22" stroke="#737E8D" stroke-width="1.5" stroke-miterlimit="10" stroke-linecap="round" stroke-linejoin="round"/>
<path d="M2 9H11" stroke="#737E8D" stroke-width="1.5" stroke-miterlimit="10" stroke-linecap="round" stroke-linejoin="round"/>
<path d="M2 15H8" stroke="#737E8D" stroke-width="1.5" stroke-miterlimit="10" stroke-linecap="round" stroke-linejoin="round"/>
<path d="M2 21H6" stroke="#737E8D" stroke-width="1.5" stroke-miterlimit="10" stroke-linecap="round" stroke-linejoin="round"/>
<path d="M11.8399 21.9996C13.0439 21.9996 14.0199 21.0236 14.0199 19.8196C14.0199 18.6157 13.0439 17.6396 11.8399 17.6396C10.6359 17.6396 9.65991 18.6157 9.65991 19.8196C9.65991 21.0236 10.6359 21.9996 11.8399 21.9996Z" stroke="#737E8D" stroke-width="1.5" stroke-linecap="round" stroke-linejoin="round"/>
<path d="M22 18.3699V9.85993C22 8.04993 20.86 7.79993 19.71 8.10993L15.36 9.29993C14.57 9.51993 14.02 10.1399 14.02 11.0499V12.57V13.59V19.82" stroke="#737E8D" stroke-width="1.5" stroke-linecap="round" stroke-linejoin="round"/>
<path d="M19.8199 20.5494C21.0239 20.5494 21.9999 19.5734 21.9999 18.3694C21.9999 17.1655 21.0239 16.1895 19.8199 16.1895C18.6159 16.1895 17.6399 17.1655 17.6399 18.3694C17.6399 19.5734 18.6159 20.5494 19.8199 20.5494Z" stroke="#737E8D" stroke-width="1.5" stroke-linecap="round" stroke-linejoin="round"/>
<path d="M14.02 13.5999L22 11.4199" stroke="#737E8D" stroke-width="1.5" stroke-linecap="round" stroke-linejoin="round"/>
</svg>
