<svg width="24" height="24" viewBox="0 0 24 24" fill="none" xmlns="http://www.w3.org/2000/svg">
<path d="M9 22H15C20 22 22 20 22 15V9C22 4 20 2 15 2H9C4 2 2 4 2 9V15C2 20 4 22 9 22Z" stroke="#737E8D" stroke-width="1.5" stroke-linecap="round" stroke-linejoin="round"/>
<path d="M15.5699 18.4996V14.5996" stroke="#737E8D" stroke-width="1.5" stroke-miterlimit="10" stroke-linecap="round" stroke-linejoin="round"/>
<path d="M15.5699 7.45V5.5" stroke="#737E8D" stroke-width="1.5" stroke-miterlimit="10" stroke-linecap="round" stroke-linejoin="round"/>
<path d="M15.57 12.6502C17.0059 12.6502 18.17 11.4861 18.17 10.0502C18.17 8.61426 17.0059 7.4502 15.57 7.4502C14.134 7.4502 12.97 8.61426 12.97 10.0502C12.97 11.4861 14.134 12.6502 15.57 12.6502Z" stroke="#737E8D" stroke-width="1.5" stroke-miterlimit="10" stroke-linecap="round" stroke-linejoin="round"/>
<path d="M8.43005 18.4998V16.5498" stroke="#737E8D" stroke-width="1.5" stroke-miterlimit="10" stroke-linecap="round" stroke-linejoin="round"/>
<path d="M8.43005 9.4V5.5" stroke="#737E8D" stroke-width="1.5" stroke-miterlimit="10" stroke-linecap="round" stroke-linejoin="round"/>
<path d="M8.42996 16.5496C9.8659 16.5496 11.03 15.3855 11.03 13.9496C11.03 12.5137 9.8659 11.3496 8.42996 11.3496C6.99402 11.3496 5.82996 12.5137 5.82996 13.9496C5.82996 15.3855 6.99402 16.5496 8.42996 16.5496Z" stroke="#737E8D" stroke-width="1.5" stroke-miterlimit="10" stroke-linecap="round" stroke-linejoin="round"/>
</svg>
