<svg width="24" height="24" viewBox="0 0 24 24" fill="none" xmlns="http://www.w3.org/2000/svg">
<path d="M20.59 10.5496V7.11957C20.59 5.88957 19.65 4.52957 18.5 4.09957L13.51 2.22957C12.68 1.91957 11.32 1.91957 10.49 2.22957L5.50003 4.10957C4.35003 4.53957 3.41003 5.89957 3.41003 7.11957V14.5496C3.41003 15.7296 4.19003 17.2796 5.14003 17.9896L9.44003 21.1996C10.14 21.7396 11.07 21.9996 12 21.9996" stroke="#737E8D" stroke-width="1.5" stroke-linecap="round" stroke-linejoin="round"/>
<path d="M16 20C18.2091 20 20 18.2091 20 16C20 13.7909 18.2091 12 16 12C13.7909 12 12 13.7909 12 16C12 18.2091 13.7909 20 16 20Z" stroke="#737E8D" stroke-width="1.5" stroke-linecap="round" stroke-linejoin="round"/>
<path d="M20.9955 21H21.0045" stroke="#737E8D" stroke-width="2" stroke-linecap="round" stroke-linejoin="round"/>
</svg>
